{
	"asset":{
		"version":"2.0",
		"generator":"Houdini GLTF 2.0 Exporter"
	},
	"accessors":[
		{
			"bufferView":0,
			"componentType":5123,
			"count":420,
			"type":"SCALAR",
			"min":[0
			],
			"max":[71
			]
		},
		{
			"bufferView":1,
			"componentType":5126,
			"count":72,
			"type":"VEC3",
			"min":[-0.5,-0.5,-0.5
			],
			"max":[0.5,0.5,0.5
			]
		},
		{
			"bufferView":2,
			"componentType":5126,
			"count":72,
			"type":"VEC3",
			"min":[-0.893743455,-0.448578686,-0.893743396
			],
			"max":[0.893743455,0.448578715,0.893743336
			]
		},
		{
			"bufferView":3,
			"componentType":5126,
			"count":72,
			"type":"VEC4",
			"min":[-1.37991261,-9.59564477e-06,-7.32405985e+28,1
			],
			"max":[1.84363263e+25,4.57288514e+34,5.39135014e+28,1
			]
		},
		{
			"bufferView":4,
			"componentType":5126,
			"count":72,
			"type":"VEC2",
			"min":[0,0
			],
			"max":[0.972222209,1
			]
		},
		{
			"bufferView":5,
			"componentType":5123,
			"count":420,
			"type":"SCALAR",
			"min":[0
			],
			"max":[71
			]
		},
		{
			"bufferView":6,
			"componentType":5126,
			"count":72,
			"type":"VEC3",
			"min":[-0.5,0.49999997,-0.5
			],
			"max":[0.5,1.29999995,0.5
			]
		},
		{
			"bufferView":7,
			"componentType":5126,
			"count":72,
			"type":"VEC3",
			"min":[-0.999917686,-0.0128383171,-0.999917626
			],
			"max":[0.999917686,0.751139045,0.999917686
			]
		},
		{
			"bufferView":8,
			"componentType":5126,
			"count":72,
			"type":"VEC4",
			"min":[-0.156190738,-0.0350484662,-1,1
			],
			"max":[1,0.0350484587,0.980995595,1
			]
		},
		{
			"bufferView":9,
			"componentType":5126,
			"count":72,
			"type":"VEC2",
			"min":[0,0
			],
			"max":[0.972222209,1
			]
		},
		{
			"bufferView":10,
			"componentType":5123,
			"count":420,
			"type":"SCALAR",
			"min":[0
			],
			"max":[71
			]
		},
		{
			"bufferView":11,
			"componentType":5126,
			"count":72,
			"type":"VEC3",
			"min":[-0.200000003,-0.899999976,-0.200000003
			],
			"max":[0.200000003,-0.5,0.200000003
			]
		},
		{
			"bufferView":12,
			"componentType":5126,
			"count":72,
			"type":"VEC3",
			"min":[-0.987318873,-0.158750072,-0.987318814
			],
			"max":[0.987318873,0.673360109,0.987318873
			]
		},
		{
			"bufferView":13,
			"componentType":5126,
			"count":72,
			"type":"VEC4",
			"min":[-1,-0.0350484625,-1,1
			],
			"max":[-1.16358621e-07,0.0350484662,0.999230802,1
			]
		},
		{
			"bufferView":14,
			"componentType":5126,
			"count":72,
			"type":"VEC2",
			"min":[0,0
			],
			"max":[0.972222209,1
			]
		}
	],
	"buffers":[
		{
			"uri":"output_data.bin",
			"byteLength":12888,
			"name":"main_buffer"
		}
	],
	"bufferViews":[
		{
			"buffer":0,
			"byteLength":840,
			"target":34963
		},
		{
			"buffer":0,
			"byteOffset":840,
			"byteLength":864,
			"target":34962
		},
		{
			"buffer":0,
			"byteOffset":1704,
			"byteLength":864,
			"target":34962
		},
		{
			"buffer":0,
			"byteOffset":2568,
			"byteLength":1152,
			"target":34962
		},
		{
			"buffer":0,
			"byteOffset":3720,
			"byteLength":576,
			"target":34962
		},
		{
			"buffer":0,
			"byteOffset":4296,
			"byteLength":840,
			"target":34963
		},
		{
			"buffer":0,
			"byteOffset":5136,
			"byteLength":864,
			"target":34962
		},
		{
			"buffer":0,
			"byteOffset":6000,
			"byteLength":864,
			"target":34962
		},
		{
			"buffer":0,
			"byteOffset":6864,
			"byteLength":1152,
			"target":34962
		},
		{
			"buffer":0,
			"byteOffset":8016,
			"byteLength":576,
			"target":34962
		},
		{
			"buffer":0,
			"byteOffset":8592,
			"byteLength":840,
			"target":34963
		},
		{
			"buffer":0,
			"byteOffset":9432,
			"byteLength":864,
			"target":34962
		},
		{
			"buffer":0,
			"byteOffset":10296,
			"byteLength":864,
			"target":34962
		},
		{
			"buffer":0,
			"byteOffset":11160,
			"byteLength":1152,
			"target":34962
		},
		{
			"buffer":0,
			"byteOffset":12312,
			"byteLength":576,
			"target":34962
		}
	],
	"nodes":[
		{
			"name":"ship",
			"mesh":0
		}
	],
	"meshes":[
		{
			"primitives":[
				{
					"attributes":{
						"POSITION":1,
						"TANGENT":3,
						"TEXCOORD_0":4,
						"NORMAL":2
					},
					"indices":0,
					"material":0
				},
				{
					"attributes":{
						"POSITION":6,
						"TANGENT":8,
						"TEXCOORD_0":9,
						"NORMAL":7
					},
					"indices":5,
					"material":1
				},
				{
					"attributes":{
						"POSITION":11,
						"TANGENT":13,
						"TEXCOORD_0":14,
						"NORMAL":12
					},
					"indices":10,
					"material":2
				}
			],
			"name":"material1"
		}
	],
	"materials":[
		{
			"name":"rocketbody",
			"pbrMetallicRoughness":{
				"baseColorFactor":[0.200000003,0.200000003,0.200000003,1
				],
				"metallicFactor":0,
				"roughnessFactor":0.300000012
			}
		},
		{
			"name":"rockettip",
			"pbrMetallicRoughness":{
				"baseColorFactor":[0.075000003,0.300000012,0.300000012,1
				],
				"metallicFactor":0,
				"roughnessFactor":0.300000012
			}
		},
		{
			"name":"rocketengine",
			"pbrMetallicRoughness":{
				"baseColorFactor":[0.5,0.5,0.5,1
				],
				"roughnessFactor":0.300000012
			}
		}
	],
	"scenes":[
		{
			"nodes":[0
			]
		}
	],
	"scene":0
}
